<?xml version="1.0" encoding="UTF-8"?>
<svg id="Calque_1" data-name="Calque 1" xmlns="http://www.w3.org/2000/svg" viewBox="0 0 1080 863.38">
  <defs>
    <style>
      .cls-1 {
        fill: #4f4f4f;
      }

      .cls-1, .cls-2, .cls-3, .cls-4, .cls-5 {
        stroke-width: 0px;
      }

      .cls-2 {
        fill: #fc4259;
      }

      .cls-3 {
        fill: #4d4d4d;
      }

      .cls-4 {
        fill: #050088;
      }

      .cls-5 {
        fill: #fff;
      }
    </style>
  </defs>
  <g>
    <path class="cls-4" d="M456.59,367.55h-.07s0,24.46,0,24.46c-2.75-.09-4.56.2-8.24,1.39-3.82,1.23-8.64,4.92-12.97,9.8-4.33,4.89-8.17,10.97-10.03,17.01-6.29,20.51-11.59,33.49-16.55,41.88-4.97,8.39-9.59,12.19-14.53,14.33l-.85.37-.85.37.1-.92.09-.91c.64-6.29,1.69-19.58,2.19-33.87.5-14.3.45-29.6-1.13-39.91-.5-3.3-1.32-5.17-2.26-6.21-.95-1.04-2.02-1.27-3.05-1.27-5.15,0-14.85,6.38-31.18,19.97-16.34,13.59-39.31,34.38-71.03,63.23-4.61,4.2-10.04,8.93-14.32,12.62-4.28,3.69-7.41,6.32-7.41,6.32l-.04-15.57-.02-7.09v293.57h192.15v-399.55ZM294.14,291.1c1.92,9.53,2.55,13.8,5.98,17.21,3.42,3.41,4.27,7.68,4.27,7.68,0,0-11.39,3.7-19.8-20.33-15.27-60.95,46.39-214.17,54.48-221.73,12.18-11.39,20.55,2.27,13.7,16.7-6.85,14.44-63.21,177.78-58.62,200.47M371.39,306.94c-.19-.11-.34-.24-.52-.36-6.55,4.04-12.73,7.7-17.55,10.39-7.13,3.98-30.38,8.4-33.37,4.55-3-3.85,0-4.7,1.14-4.7s5.97-1.89,8.46-2.58c7.51-2.09,19.24-8.83,30.81-16.84-23.21-27.74,10.89-65.67,43.75-53.48,23.23,8.61,11,28.85,7.88,32.89-3.46,4.48-14.37,12.46-26.5,20.45,18.16,7.03,45.57,5.93,71.1-13.39V0h-192.15v465.03c.11-.1,6.29-5.72,14.35-13.08,8.13-7.42,18.16-16.59,25.72-23.59,8.19-7.58,16.16-14.94,23.78-21.76,7.62-6.81,14.89-13.07,21.71-18.43,7.3-5.73,14.19-10.06,20.61-12.95,6.43-2.89,12.39-4.35,17.85-4.35,6.54,0,12.17,2.12,16.7,6.17,4.53,4.05,7.97,10.03,10.11,17.76,5.57-7.25,11.06-13.06,16.46-17.39,5.39-4.34,10.68-7.19,15.83-8.55l.17-.06.17-.06c1.47-.39,2.92-.69,4.35-.89,1.43-.2,2.85-.32,4.25-.34.02,0,.05,0,.07,0v-71.58c-19.11,13.35-54.17,30.9-85.2,10.98M372.39,287.23c13.73-10.71,23.1-20.23,23.41-23.8.03-.39-.08-.51-.12-.55-1.7-1.88-3.84-2.68-6.15-2.68-3.67,0-7.74,2.02-11.04,4.84-6.83,5.86-10.94,15.19-6.11,22.19"/>
    <path class="cls-1" d="M729.79,381.79c-4.5,1.11-6.8,4.06-6.32,8.1.63,5.17,5.76,10.89,9.46,10.34.88-.12,2.36-.19,4.29-.19,7.85,0,21.45,1.05,29.07,2.24,5.05.8,15.57,4.48,19.22,12.7,2.63,5.94,1.24,13.1-4.16,21.3-16.21,24.62-49.9,25.81-62.59,26.26-2.14.07-3.69.13-4.61.27-2.47.39-3.97,2.05-3.8,4.24.25,3.29,4.64,7.93,13.58,7.93h.01c20.28,0,86.55-3.75,88.23-51.79.38-10.66-2.85-19.62-9.59-26.58-14.61-15.1-41.8-16.73-52.81-16.73-7.65,0-15.13.71-20,1.91"/>
    <path class="cls-1" d="M1070.66,544.74l-1.63-.79c-29.13-14.06-125.84-61.72-147.58-84.33-3.25-3.37-6.89-6.79-10.76-10.42-25.04-23.49-59.34-55.65-33.94-128.35,9.67-27.64,18.21-47.7,25.08-63.82,14.19-33.28,22.01-51.61,19.91-89.87-.42-7.76-6.72-15.95-12.25-15.95-2.26,0-6.22,1.41-7.29,10.89l-.27,2.45c-2.25,20.19-6,53.98-29.65,106.11l-.7,1.56c-25.2,55.48-59.69,131.46,20.6,194.12,81.98,64.01,171.93,88.53,181.08,89.53.89.09,1.67.14,2.34.14,2.55,0,4.02-.7,4.33-2.09.74-3.16-5.95-7.56-9.28-9.2"/>
    <path class="cls-1" d="M897.73,342.55c-.84,3.22.41,6.84,3.81,11.06,1.46,1.83,4.52,2.68,9.62,2.68,5.95,0,13.75-1.14,22.03-2.36,3.74-.54,7.5-1.09,11.09-1.53,13.82-1.69,30.68-3.19,44.25-4.4l8.85-.8c3.52-.32,8.11-.76,13.16-1.25,15.48-1.52,36.67-3.59,44.48-3.59l1.18.02c3.64,0,4.21-1.87,4.28-2.67.39-4.3-9.43-11.43-21.45-13.62-2.63-.48-7.56-.71-14.65-.71-34.29,0-108.46,5.61-118.51,9.71-4.6,1.87-7.32,4.39-8.12,7.47"/>
    <path class="cls-1" d="M235.17,488.5c-5.79,4.26-11.44,8.14-16.8,11.53-10.48,6.62-32.99,17.41-42.42,20.3-11.59,4.11-24.8,6.29-38.2,6.29-34.72,0-67.34-13.93-87.26-37.3-18.91-22.18-25.97-52.03-20.41-86.3,5.87-36.14,36.51-109.89,113.95-157.03,19.67-8.77,15.45-19.02,15.26-19.45l-.37-.85-.9.25C61.26,252.04,21.89,327.45,5.91,386.1c-14.52,53.29.46,90.88,15.59,113.03,19.5,28.54,51.34,48.42,83.09,51.86,10.03,1.1,19.92,2.07,30.54,2.07,12.68,0,24.58-1.45,36.14-4.43l.32-.04c15.49-3.95,31.17-10.6,47.92-20.37,5.48-3.2,11.18-6.79,16.93-10.7,6.23-4.24,11.82-8.47,18.83-13.93l9.19-7.41v-31.14l-11.24,9.13c-6.29,5.2-11.72,9.69-18.03,14.33"/>
    <path class="cls-3" d="M857.53,543.29c-9.59,0-21.86,1.55-31.49,2.9-5.49.77-19.15,2.88-36.44,5.54-31.28,4.82-74.14,11.41-89.75,13.32-3.38.41-8.33,1-14.36,1.7,11.34-61.92,24.27-133.86,26.04-146.86.68-4.96-1.47-11.56-5.1-15.71-1.91-2.19-3.99-3.35-6-3.35s-5.06,1.3-7.15,7.47c-2.31,6.84-17.44,78.73-33.53,161.38-14.06,1.58-57.28,6.36-83.83,8.89,18.8-90.59,37.15-178.56,44.44-210.79,56.44-63.73,109.45-146.69,131.97-206.52,4.17-11.07,39.97-108.86,14.89-132.21-3.92-3.66-8.22-5.51-12.77-5.51-56.57,0-138.94,290.79-139.77,293.73-1.79,6.38-4.85,17.53-8.6,31.51-11.69,13.8-22.3,25.92-30.84,35.66-10.14,11.58-16.83,19.22-19.03,22.45-4.09,6.01-8.59,16.54-6.39,20.69.44.82,1.35,1.8,3.16,1.8,3.09,0,7.97-2.93,14.92-8.99,8.34-7.27,16.94-15.32,25.59-23.99-10.91,41.98-28.57,111.83-32.15,137.69-1.05,7.57-2.96,19.61-5.38,34.85l-1.79,11.28c-7.55.42-18.42,1.26-28.95,2.06-15.18,1.16-30.88,2.36-36.77,2.36-9.18,0-15.26,2.85-16.25,7.66-.56,2.74-.96,6.21,1.01,8.61,1.48,1.81,3.95,2.7,7.57,2.7h.41c22.26-.58,45.74-1.64,69.8-3.15-3.98,25.64-9.58,62.71-13.12,94.19-1.72,15.33-5.73,52.38-5.79,65.44-.01,2.94.32,3.88.82,4.38l.56.43h.45c.94,0,1.56-.86,2.16-1.7.1-.14.23-.33.35-.47l1.01.11c2.77-12.08,15.14-71.73,29.46-140.81l4.77-22.97c29.14-2.12,57.37-4.79,83.92-7.91-16.75,87.1-44.11,235.8-41.58,265.46.23,2.3,2.47,6.78,5.74,6.78,4.11,0,7.16-6.78,9.31-20.74,6.54-42.26,20.79-102.14,29.3-137.9,2.61-10.96,4.66-19.6,5.73-24.54,2.03-9.32,8.57-43.81,17.52-92.35,14.05-1.92,27.04-3.93,38.61-5.98,66.97-11.85,147.86-27.15,152.99-32.74l.45-.49-.23-.62c-1.24-3.22-6.3-4.72-15.92-4.72M637.67,310.31c49.33-157.99,81.55-217.29,106.6-254.41,5.68-8.42,8.22-9.33,9.05-9.33.25,0,.55.07.91.61,5.93,9.28-13.51,87.32-44.66,154.03-13.75,29.46-37.94,66.15-71.9,109.1"/>
    <path class="cls-1" d="M500.99,438.11c-.56-2.73-1.19-6.63-1.93-11.16-2-12.35-4.75-29.26-8.65-38.42-2.31-5.43-10.63-15.48-23.18-19.36l-.62-.2s-4.45-1.48-10.05-1.45l.02,24.49c.35,0,5.11-.02,7.53.85l.69.26c9.13,3.47,13.38,14.56,13.04,34.06,2.77,18.11,11.81,35.22,18.6,35.24.69,0,1.35-.18,1.93-.53,6.16-3.61,4.58-14.17,2.61-23.77"/>
  </g>
  <rect class="cls-4" x="751.13" y="618.33" width="69.07" height="69.07"/>
  <rect class="cls-5" x="820.2" y="618.33" width="69.07" height="69.07"/>
  <rect class="cls-2" x="889.57" y="618.33" width="69.07" height="69.07"/>
</svg>
